<?xml version="1.0" encoding="utf-8"?>
<!-- Generator: Adobe Illustrator 23.0.3, SVG Export Plug-In . SVG Version: 6.00 Build 0)  -->
<svg version="1.1" id="Layer_1" xmlns="http://www.w3.org/2000/svg" xmlns:xlink="http://www.w3.org/1999/xlink" x="0px" y="0px"
	 viewBox="0 0 512 512" style="enable-background:new 0 0 512 512;" xml:space="preserve">
<style type="text/css">
	.st0{fill:#FFFFFF;}
	.st1{fill:none;}
</style>
<g>
	<path class="st0" d="M138.1,246.8l-2.8,3.3c-2.1-1.7-4.3-2.5-6.7-2.4c-0.8,0.1-1.6,0.3-2.3,0.6c-0.6,0.3-1.1,0.7-1.6,1.2
		c-0.6,0.7-0.9,1.6-0.8,2.6c0.1,0.4,0.3,0.8,0.6,1.2c0.3,0.4,0.6,0.7,0.9,0.9s0.8,0.5,1.4,0.7s1.1,0.4,1.5,0.5
		c0.4,0.1,1,0.3,1.8,0.5c1.3,0.4,2.2,0.7,2.9,0.9s1.5,0.6,2.5,1.1s1.7,1,2.2,1.6s0.9,1.3,1.2,2.3c0.3,0.9,0.4,2,0.3,3.3l0,0
		c-0.2,1.4-0.7,2.6-1.6,3.7c-1,1.3-2.4,2.2-4.2,2.8c-1.7,0.5-3.5,0.6-5.4,0.4c-3.4-0.4-6.6-1.8-9.6-4.3l2.7-3.4
		c2.4,1.9,4.8,3,7.4,3.3c1.3,0.2,2.5,0.1,3.6-0.2c0.9-0.3,1.6-0.7,2.1-1.3c0.3-0.4,0.5-0.9,0.6-1.4c0-0.5-0.1-1-0.3-1.4
		s-0.5-0.8-0.8-1c-0.3-0.3-0.8-0.5-1.4-0.8c-0.6-0.3-1.2-0.5-1.6-0.6c-0.4-0.1-1-0.3-1.8-0.6c-0.8-0.2-1.4-0.4-1.8-0.5
		s-1-0.3-1.7-0.6c-0.7-0.3-1.3-0.5-1.7-0.8c-0.4-0.2-0.9-0.5-1.4-0.9s-1-0.8-1.3-1.2c-0.3-0.4-0.6-0.9-0.8-1.6
		c-0.3-0.6-0.4-1.3-0.5-2v-0.2c-0.2-2.2,0.5-4.1,1.8-5.8c0.8-1,1.8-1.7,3-2.3c1.2-0.5,2.5-0.9,3.8-1c1.1-0.1,2.1,0,3.2,0.2
		c1.1,0.2,2.2,0.6,3.3,1.1C136,245.3,137.1,245.9,138.1,246.8"/>
	<path class="st0" d="M145,265.1c-1.3-2.2-1.9-4.6-1.9-7.2c0-2.6,0.6-5,1.9-7.2c1.3-2.2,3-3.9,5.2-5.2s4.6-1.9,7.2-1.9
		c1.5,0,2.9,0.2,4.2,0.7c1.4,0.4,2.6,1,3.8,1.8c1.1,0.8,2.1,1.7,3,2.8l-3.1,3.1c-0.9-1.2-2.1-2.2-3.4-2.9c-1.4-0.7-2.9-1.1-4.4-1.1
		c-2.7,0-5,1-7,2.9c-1.9,1.9-2.9,4.3-2.9,7c0,2.7,1,5,2.9,7c1.9,1.9,4.3,2.9,7,2.9c1.6,0,3.1-0.4,4.4-1.1c1.4-0.7,2.5-1.7,3.4-2.9
		l3.1,3.1c-1.3,1.6-2.9,2.9-4.9,3.9c-1.9,0.9-4,1.4-6.2,1.4c-2.6,0-5-0.6-7.2-1.9C148,269,146.3,267.3,145,265.1"/>
	<path class="st0" d="M189.7,271.5l-7.1-11.5h-5.9v11.5h-4.3v-15.7H186l0,0c1,0,1.8-0.3,2.5-1s1-1.5,1-2.5s-0.3-1.8-1-2.5
		s-1.5-1-2.5-1h-13.7v-4.3H186c2.1,0,3.9,0.7,5.4,2.2s2.3,3.2,2.5,5.3l0,0c0.1,1.9-0.5,3.7-1.7,5.2c-1.2,1.5-2.8,2.5-4.7,2.9
		l7.2,11.6h-5V271.5z"/>
	<path class="st0" d="M221.7,271.5l-2.8-6.5H206l-2.8,6.5h-4.7l6.4-15.1h4.7l-1.8,4.2h9.1c-4.3-10.2-6.7-15.6-6.9-16.2h4.7
		l11.6,27.2h-4.6V271.5z"/>
	<path class="st0" d="M247.8,248.6h-22.2v-4.3h22.2V248.6z M238.9,271.5h-4.3v-18.6h4.3V271.5z"/>
	<path class="st0" d="M253.6,265.1c-1.3-2.2-1.9-4.6-1.9-7.2c0-2.6,0.6-5,1.9-7.2c1.3-2.2,3-3.9,5.2-5.2s4.6-1.9,7.2-1.9
		c1.5,0,2.9,0.2,4.2,0.7c1.4,0.4,2.6,1,3.8,1.8s2.2,1.7,3,2.8l-3.1,3.1c-0.9-1.2-2.1-2.2-3.4-2.9c-1.4-0.7-2.9-1.1-4.4-1.1
		c-2.7,0-5,1-7,2.9c-1.9,1.9-2.9,4.3-2.9,7c0,2.7,1,5,2.9,7c1.9,1.9,4.3,2.9,7,2.9c1.6,0,3.1-0.4,4.4-1.1c1.4-0.7,2.5-1.7,3.4-2.9
		l3.1,3.1c-1.3,1.6-2.9,2.9-4.9,3.9c-1.9,0.9-4,1.4-6.2,1.4c-2.6,0-5-0.6-7.2-1.9C256.6,269,254.9,267.3,253.6,265.1"/>
	<path class="st0" d="M298.8,260h-13.6v11.5h-4.3v-15.7h7.1l0,0c5.4,0,9,0,10.8,0v-11.5h4.3v27.2h-4.3V260z M280.9,244.3h4.3v7.1
		h-4.3V244.3z"/>
	<path class="st0" d="M339.7,270.9c-0.5-0.5-1.5-1.4-3-2.6c-0.3,0.3-0.7,0.7-1,1c-1.5,1.2-3,2.1-4.6,2.5s-3.1,0.4-4.6,0.1
		c-1.3-0.3-2.5-0.9-3.5-1.8s-1.8-1.9-2.2-3.1c-0.9-2.5-0.4-4.9,1.4-7.3c0.6-0.9,1.5-1.6,2.5-2.4c-0.7-0.9-1.3-1.9-1.6-3
		c-0.5-1.3-0.7-2.6-0.6-3.9c0.1-1.5,0.6-2.8,1.3-3.8c0.8-1,1.7-1.8,2.9-2.3c1-0.4,2.1-0.6,3.3-0.6c1.1,0,2.2,0.3,3.2,0.7
		c1.2,0.5,2.2,1.4,2.9,2.4c0.8,1.1,1.2,2.4,1.3,3.9c0.1,1-0.1,1.9-0.4,2.8c-0.3,0.9-0.8,1.7-1.5,2.4c-0.8,0.8-1.9,1.6-3.3,2.4
		c0.9,0.8,2.2,2,3.8,3.5c0.8-1.3,1.4-2.7,1.9-4.1l4.3,1.5c-0.7,2-1.6,3.8-2.8,5.6c1.1,1,2.1,1.9,3.1,2.8L339.7,270.9z M333.3,265.2
		c-2.5-2.1-4.2-3.7-5.3-4.7c-1,0.6-1.7,1.2-2.1,1.8c-0.8,1.1-1.1,2.1-0.7,3c0.2,0.5,0.4,0.9,0.9,1.2c0.4,0.4,1,0.7,1.6,0.8
		c1.7,0.4,3.4-0.1,5.1-1.6C332.9,265.6,333.1,265.4,333.3,265.2 M328.7,254.7L328.7,254.7L328.7,254.7c1.9-0.9,3-1.6,3.6-2.2
		c0.2-0.2,0.4-0.5,0.5-0.8s0.1-0.6,0.1-0.9c-0.1-1.1-0.6-1.9-1.5-2.4c-0.4-0.2-0.9-0.3-1.4-0.3s-0.9,0.1-1.4,0.3
		c-0.9,0.4-1.4,1.2-1.5,2.3c-0.1,0.6,0,1.2,0.3,1.9S328.1,254,328.7,254.7"/>
	<path class="st0" d="M379.8,246.8l-2.8,3.3c-2.1-1.7-4.3-2.5-6.7-2.4c-0.8,0.1-1.6,0.3-2.3,0.6c-0.6,0.3-1.1,0.7-1.6,1.2
		c-0.6,0.7-0.9,1.6-0.8,2.6c0.1,0.4,0.3,0.8,0.6,1.2c0.3,0.4,0.6,0.7,0.9,0.9s0.8,0.5,1.4,0.7s1.1,0.4,1.5,0.5s1,0.3,1.8,0.5
		c1.3,0.4,2.2,0.7,2.9,0.9c0.7,0.2,1.5,0.6,2.5,1.1s1.7,1,2.2,1.6s0.9,1.3,1.2,2.3c0.3,0.9,0.4,2,0.3,3.3l0,0
		c-0.2,1.4-0.7,2.6-1.6,3.7c-1,1.3-2.4,2.2-4.2,2.8c-1.7,0.5-3.5,0.6-5.4,0.4c-3.4-0.4-6.6-1.8-9.6-4.3l2.7-3.4
		c2.4,1.9,4.8,3,7.4,3.3c1.3,0.2,2.6,0.1,3.6-0.2c0.9-0.3,1.6-0.7,2.1-1.3c0.3-0.4,0.5-0.9,0.6-1.4c0-0.5-0.1-1-0.3-1.4
		c-0.2-0.4-0.5-0.8-0.8-1c-0.3-0.3-0.8-0.5-1.4-0.8s-1.2-0.5-1.6-0.6s-1-0.3-1.8-0.6c-0.8-0.2-1.4-0.4-1.8-0.5s-1-0.3-1.7-0.6
		c-0.7-0.3-1.3-0.5-1.7-0.8c-0.4-0.2-0.9-0.5-1.4-0.9s-1-0.8-1.3-1.2c-0.3-0.4-0.6-0.9-0.8-1.6c-0.3-0.6-0.4-1.3-0.5-2v-0.2
		c-0.2-2.2,0.5-4.1,1.8-5.8c0.8-1,1.8-1.7,3-2.3c1.2-0.5,2.5-0.9,3.8-1c1.1-0.1,2.1,0,3.2,0.2s2.2,0.6,3.3,1.1
		C377.7,245.3,378.7,245.9,379.8,246.8"/>
	<path class="st0" d="M386.7,265.1c-1.3-2.2-1.9-4.6-1.9-7.2c0-2.6,0.6-5,1.9-7.2s3-3.9,5.2-5.2s4.6-1.9,7.2-1.9
		c1.5,0,2.9,0.2,4.2,0.7c1.4,0.4,2.6,1,3.8,1.8c1.1,0.8,2.2,1.7,3,2.8L407,252c-0.9-1.2-2.1-2.2-3.4-2.9c-1.4-0.7-2.9-1.1-4.4-1.1
		c-2.7,0-5,1-7,2.9c-1.9,1.9-2.9,4.3-2.9,7s1,5,2.9,7c1.9,1.9,4.3,2.9,7,2.9c1.6,0,3.1-0.4,4.4-1.1c1.4-0.7,2.5-1.7,3.4-2.9l3.1,3.1
		c-1.3,1.6-2.9,2.9-4.9,3.9c-1.9,0.9-4,1.4-6.2,1.4c-2.6,0-5-0.6-7.2-1.9C389.7,269,388,267.3,386.7,265.1"/>
	<path class="st0" d="M431.3,271.5l-7.1-11.5h-5.9v11.5H414v-15.7h13.6l0,0c1,0,1.8-0.3,2.5-1s1-1.5,1-2.5s-0.3-1.8-1-2.5
		s-1.5-1-2.5-1H414v-4.3h13.6c2.1,0,3.9,0.7,5.4,2.2s2.3,3.2,2.5,5.3l0,0c0.1,1.9-0.5,3.7-1.7,5.2c-1.2,1.5-2.8,2.5-4.7,2.9
		l7.2,11.6h-5V271.5z"/>
	<rect x="440.2" y="244.3" class="st0" width="4.3" height="27.2"/>
	<path class="st0" d="M469.9,251.8c0.1,2.2-0.6,4.2-2.2,5.8s-3.5,2.4-5.7,2.4h-9.3v11.5h-4.3v-15.7H462l0,0c1,0,1.8-0.3,2.5-1
		s1-1.5,1-2.5s-0.3-1.8-1-2.5s-1.5-1-2.5-1h-13.7v-4.3h13.6c2.1,0,3.9,0.7,5.4,2.2C469,247.9,469.8,249.7,469.9,251.8L469.9,251.8z"
		/>
	<path class="st0" d="M496,248.6h-22.2v-4.3H496V248.6z M487.1,271.5h-4.3v-18.6h4.3V271.5z"/>
	<path class="st0" d="M103.9,214c-2-2-4.5-3.1-7.4-3.1l0,0H66.2v17.3l-3.8,3.2l35.4,30v13l-32.4,26.9h31c2.9,0,5.4-1,7.4-3.1
		c2-2,3.1-4.5,3.1-7.4v-69.4C106.9,218.5,105.9,216,103.9,214"/>
	<path class="st0" d="M25,237.4l31.3-26.5H27.1c-2.9,0-5.4,1-7.4,3.1c-2,2-3.1,4.5-3.1,7.4v69.4c0,2.9,1,5.4,3.1,7.4
		c2.1,2.1,4.5,3.1,7.4,3.1h29.5v-18.1l3.9-3.2L25,250.4V237.4z"/>
	<polygon class="st0" points="65.9,283.5 63.4,285.5 63.4,294.3 90.9,271.5 90.9,264.6 63.4,241.4 63.4,250.2 84.5,268 66.6,282.9 	
		"/>
	<polygon class="st0" points="33.2,248.5 60.6,271.3 60.6,262.6 39.5,245.1 57.4,229.9 58.3,229.1 60.6,227.2 60.6,218.4 
		33.2,241.7 	"/>
</g>
<rect y="0" class="st1" width="512" height="512"/>
</svg>
